<?xml version="1.0" encoding="UTF-8" standalone="no"?><svg xmlns="http://www.w3.org/2000/svg" xmlns:xlink="http://www.w3.org/1999/xlink" contentStyleType="text/css" height="457px" preserveAspectRatio="none" style="width:392px;height:457px;background:#FFFFFF;" version="1.1" viewBox="0 0 392 457" width="392px" zoomAndPan="magnify"><defs/><g><!--MD5=[e8de2477f0619782a88ba6174d99456f]
class Artisan--><g id="elem_Artisan"><rect codeLine="1" fill="#F1F1F1" height="96.8906" id="Artisan" rx="2.5" ry="2.5" style="stroke:#181818;stroke-width:0.5;" width="167" x="7" y="7"/><ellipse cx="60.75" cy="23" fill="#ADD1B2" rx="11" ry="11" style="stroke:#181818;stroke-width:1.0;"/><path d="M63.0938,18.6719 C62.1563,18.2344 61.5625,18.0938 60.6875,18.0938 C58.0625,18.0938 56.0625,20.1719 56.0625,22.8906 L56.0625,24.0156 C56.0625,26.5938 58.1719,28.4844 61.0625,28.4844 C62.2813,28.4844 63.4375,28.1875 64.1875,27.6406 C64.7656,27.2344 65.0938,26.7813 65.0938,26.3906 C65.0938,25.9375 64.7031,25.5469 64.2344,25.5469 C64.0156,25.5469 63.8125,25.625 63.625,25.8125 C63.1719,26.2969 63.1719,26.2969 62.9844,26.3906 C62.5625,26.6563 61.875,26.7813 61.1094,26.7813 C59.0625,26.7813 57.7656,25.6875 57.7656,23.9844 L57.7656,22.8906 C57.7656,21.1094 59.0156,19.7969 60.75,19.7969 C61.3281,19.7969 61.9375,19.9531 62.4063,20.2031 C62.8906,20.4844 63.0625,20.7031 63.1563,21.1094 C63.2188,21.5156 63.25,21.6406 63.3906,21.7656 C63.5313,21.9063 63.7656,22.0156 63.9844,22.0156 C64.25,22.0156 64.5156,21.875 64.6875,21.6563 C64.7969,21.5 64.8281,21.3125 64.8281,20.8906 L64.8281,19.4688 C64.8281,19.0313 64.8125,18.9063 64.7188,18.75 C64.5625,18.4844 64.2813,18.3438 63.9844,18.3438 C63.6875,18.3438 63.4844,18.4375 63.2656,18.75 L63.0938,18.6719 Z " fill="#000000"/><text fill="#000000" font-family="sans-serif" font-size="14" lengthAdjust="spacing" textLength="51" x="81.25" y="27.8467">Artisan</text><line style="stroke:#181818;stroke-width:0.5;" x1="8" x2="173" y1="39" y2="39"/><ellipse cx="18" cy="50" fill="none" rx="3" ry="3" style="stroke:#038048;stroke-width:1.0;"/><text fill="#000000" font-family="sans-serif" font-size="14" lengthAdjust="spacing" textLength="122" x="27" y="55.9951">int salaireHoraire</text><ellipse cx="18" cy="66.2969" fill="none" rx="3" ry="3" style="stroke:#038048;stroke-width:1.0;"/><text fill="#000000" font-family="sans-serif" font-size="14" lengthAdjust="spacing" textLength="141" x="27" y="72.292">String coordonnées</text><ellipse cx="18" cy="82.5938" fill="none" rx="3" ry="3" style="stroke:#038048;stroke-width:1.0;"/><text fill="#000000" font-family="sans-serif" font-size="14" lengthAdjust="spacing" textLength="71" x="27" y="88.5889">String adr</text><line style="stroke:#181818;stroke-width:0.5;" x1="8" x2="173" y1="95.8906" y2="95.8906"/></g><!--MD5=[7231450f633845da6e92cf0373678125]
class Chantier--><g id="elem_Chantier"><rect codeLine="7" fill="#F1F1F1" height="113.1875" id="Chantier" rx="2.5" ry="2.5" style="stroke:#181818;stroke-width:0.5;" width="166" x="7.5" y="337"/><ellipse cx="55.25" cy="353" fill="#ADD1B2" rx="11" ry="11" style="stroke:#181818;stroke-width:1.0;"/><path d="M57.5938,348.6719 C56.6563,348.2344 56.0625,348.0938 55.1875,348.0938 C52.5625,348.0938 50.5625,350.1719 50.5625,352.8906 L50.5625,354.0156 C50.5625,356.5938 52.6719,358.4844 55.5625,358.4844 C56.7813,358.4844 57.9375,358.1875 58.6875,357.6406 C59.2656,357.2344 59.5938,356.7813 59.5938,356.3906 C59.5938,355.9375 59.2031,355.5469 58.7344,355.5469 C58.5156,355.5469 58.3125,355.625 58.125,355.8125 C57.6719,356.2969 57.6719,356.2969 57.4844,356.3906 C57.0625,356.6563 56.375,356.7813 55.6094,356.7813 C53.5625,356.7813 52.2656,355.6875 52.2656,353.9844 L52.2656,352.8906 C52.2656,351.1094 53.5156,349.7969 55.25,349.7969 C55.8281,349.7969 56.4375,349.9531 56.9063,350.2031 C57.3906,350.4844 57.5625,350.7031 57.6563,351.1094 C57.7188,351.5156 57.75,351.6406 57.8906,351.7656 C58.0313,351.9063 58.2656,352.0156 58.4844,352.0156 C58.75,352.0156 59.0156,351.875 59.1875,351.6563 C59.2969,351.5 59.3281,351.3125 59.3281,350.8906 L59.3281,349.4688 C59.3281,349.0313 59.3125,348.9063 59.2188,348.75 C59.0625,348.4844 58.7813,348.3438 58.4844,348.3438 C58.1875,348.3438 57.9844,348.4375 57.7656,348.75 L57.5938,348.6719 Z " fill="#000000"/><text fill="#000000" font-family="sans-serif" font-size="14" lengthAdjust="spacing" textLength="62" x="75.75" y="357.8467">Chantier</text><line style="stroke:#181818;stroke-width:0.5;" x1="8.5" x2="172.5" y1="369" y2="369"/><ellipse cx="18.5" cy="380" fill="none" rx="3" ry="3" style="stroke:#038048;stroke-width:1.0;"/><text fill="#000000" font-family="sans-serif" font-size="14" lengthAdjust="spacing" textLength="137" x="27.5" y="385.9951">Date dateDeDebut</text><ellipse cx="18.5" cy="396.2969" fill="none" rx="3" ry="3" style="stroke:#038048;stroke-width:1.0;"/><text fill="#000000" font-family="sans-serif" font-size="14" lengthAdjust="spacing" textLength="113" x="27.5" y="402.292">Date dateDeFin</text><ellipse cx="18.5" cy="412.5938" fill="none" rx="3" ry="3" style="stroke:#038048;stroke-width:1.0;"/><text fill="#000000" font-family="sans-serif" font-size="14" lengthAdjust="spacing" textLength="71" x="27.5" y="418.5889">String adr</text><line style="stroke:#181818;stroke-width:0.5;" x1="8.5" x2="172.5" y1="425.8906" y2="425.8906"/><text fill="#000000" font-family="sans-serif" font-size="14" lengthAdjust="spacing" textLength="154" x="13.5" y="442.8857">void affecterArtisan()</text></g><!--MD5=[6b08a9d313da440d8adfee65b6170004]
class Affectation--><g id="elem_Affectation"><rect codeLine="14" fill="#F1F1F1" height="113.1875" id="Affectation" rx="2.5" ry="2.5" style="stroke:#181818;stroke-width:0.5;" width="258" x="127.5" y="164"/><ellipse cx="210.75" cy="180" fill="#ADD1B2" rx="11" ry="11" style="stroke:#181818;stroke-width:1.0;"/><path d="M213.0938,175.6719 C212.1563,175.2344 211.5625,175.0938 210.6875,175.0938 C208.0625,175.0938 206.0625,177.1719 206.0625,179.8906 L206.0625,181.0156 C206.0625,183.5938 208.1719,185.4844 211.0625,185.4844 C212.2813,185.4844 213.4375,185.1875 214.1875,184.6406 C214.7656,184.2344 215.0938,183.7813 215.0938,183.3906 C215.0938,182.9375 214.7031,182.5469 214.2344,182.5469 C214.0156,182.5469 213.8125,182.625 213.625,182.8125 C213.1719,183.2969 213.1719,183.2969 212.9844,183.3906 C212.5625,183.6563 211.875,183.7813 211.1094,183.7813 C209.0625,183.7813 207.7656,182.6875 207.7656,180.9844 L207.7656,179.8906 C207.7656,178.1094 209.0156,176.7969 210.75,176.7969 C211.3281,176.7969 211.9375,176.9531 212.4063,177.2031 C212.8906,177.4844 213.0625,177.7031 213.1563,178.1094 C213.2188,178.5156 213.25,178.6406 213.3906,178.7656 C213.5313,178.9063 213.7656,179.0156 213.9844,179.0156 C214.25,179.0156 214.5156,178.875 214.6875,178.6563 C214.7969,178.5 214.8281,178.3125 214.8281,177.8906 L214.8281,176.4688 C214.8281,176.0313 214.8125,175.9063 214.7188,175.75 C214.5625,175.4844 214.2813,175.3438 213.9844,175.3438 C213.6875,175.3438 213.4844,175.4375 213.2656,175.75 L213.0938,175.6719 Z " fill="#000000"/><text fill="#000000" font-family="sans-serif" font-size="14" lengthAdjust="spacing" textLength="83" x="231.25" y="184.8467">Affectation</text><line style="stroke:#181818;stroke-width:0.5;" x1="128.5" x2="384.5" y1="196" y2="196"/><rect fill="none" height="6" style="stroke:#C82930;stroke-width:1.0;" width="6" x="135.5" y="204"/><text fill="#000000" font-family="sans-serif" font-size="14" lengthAdjust="spacing" textLength="169" x="147.5" y="212.9951">Date dateDebutMission</text><rect fill="none" height="6" style="stroke:#C82930;stroke-width:1.0;" width="6" x="135.5" y="220.2969"/><text fill="#000000" font-family="sans-serif" font-size="14" lengthAdjust="spacing" textLength="145" x="147.5" y="229.292">Date dateFinMission</text><rect fill="none" height="6" style="stroke:#C82930;stroke-width:1.0;" width="6" x="135.5" y="236.5938"/><text fill="#000000" font-family="sans-serif" font-size="14" lengthAdjust="spacing" textLength="232" x="147.5" y="245.5889">String nombreHeuresEffectuees</text><line style="stroke:#181818;stroke-width:0.5;" x1="128.5" x2="384.5" y1="252.8906" y2="252.8906"/><text fill="#000000" font-family="sans-serif" font-size="14" lengthAdjust="spacing" textLength="96" x="133.5" y="269.8857">int calcPaye()</text></g><ellipse cx="90.5" cy="220.5" fill="#000000" rx="2" ry="2" style="stroke:none;stroke-width:1.0;"/><!--MD5=[09d54f7a001aa47fa6b8eecbe4d6f2b9]
link Artisan to apoint359281--><g id="link_Artisan_apoint359281"><path d="M90.5,104.085 C90.5,148.437 90.5,209.101 90.5,218.309 " fill="none" id="Artisan-apoint359281" style="stroke:#181818;stroke-width:1.0;"/><text fill="#000000" font-family="sans-serif" font-size="13" lengthAdjust="spacing" textLength="23" x="65.8828" y="124.0559">1..*</text></g><!--MD5=[ad1f46193344612c775696bdcefce1c9]
link apoint359281 to Chantier--><g id="link_apoint359281_Chantier"><path d="M90.5,222.592 C90.5,231.324 90.5,290.672 90.5,336.797 " fill="none" id="apoint359281-Chantier" style="stroke:#181818;stroke-width:1.0;"/><text fill="#000000" font-family="sans-serif" font-size="13" lengthAdjust="spacing" textLength="24" x="65.0375" y="326.0358">0..1</text></g><!--MD5=[7ba4d88e77f8fdd36893cf7010dcb7c3]
link apoint359281 to Affectation--><g id="link_apoint359281_Affectation"><path d="M92.7695,220.5 C104.2818,220.5 115.794,220.5 127.306,220.5 " fill="none" id="apoint359281-Affectation" style="stroke:#181818;stroke-width:1.0;stroke-dasharray:7.0,7.0;"/></g><!--MD5=[60a4d48889b6a1a62a4e7d6bdf699c4c]
@startuml
class Artisan {
    +int salaireHoraire
    +String coordonnées
    +String adr
}

class Chantier {
    +Date dateDeDebut
    +Date dateDeFin
    +String adr
    void affecterArtisan()
}

class Affectation {
    -Date dateDebutMission
    -Date dateFinMission
    -String nombreHeuresEffectuees
    int calcPaye()
}

Artisan "1..*" - - "0..1" Chantier
(Artisan, Chantier) .. Affectation
@enduml

PlantUML version 1.2022.3beta2(Unknown compile time)
(GPL source distribution)
Java Runtime: Java(TM) SE Runtime Environment
JVM: Java HotSpot(TM) 64-Bit Server VM
Default Encoding: UTF-8
Language: en
Country: US
--></g></svg>