<?xml version="1.0" encoding="UTF-8" standalone="no"?><svg xmlns="http://www.w3.org/2000/svg" xmlns:xlink="http://www.w3.org/1999/xlink" contentStyleType="text/css" height="353px" preserveAspectRatio="none" style="width:2616px;height:353px;background:#FFFFFF;" version="1.1" viewBox="0 0 2616 353" width="2616px" zoomAndPan="magnify"><defs/><g><!--MD5=[c55be7501db5c1d904351a119c7dcc4a]
cluster Interface application--><g id="cluster_Interface application"><path d="M8.5,144.5 L180.5,144.5 A3.75,3.75 0 0 1 183,147 L190,166.7969 L2606.5,166.7969 A2.5,2.5 0 0 1 2609,169.2969 L2609,344 A2.5,2.5 0 0 1 2606.5,346.5 L8.5,346.5 A2.5,2.5 0 0 1 6,344 L6,147 A2.5,2.5 0 0 1 8.5,144.5 " style="stroke:#000000;stroke-width:1.5;fill:none;"/><line style="stroke:#000000;stroke-width:1.5;fill:none;" x1="6" x2="190" y1="166.7969" y2="166.7969"/><text fill="#000000" font-family="sans-serif" font-size="14" font-weight="bold" lengthAdjust="spacing" textLength="171" x="10" y="159.4951">Interface application</text></g><!--MD5=[82446fd5504413aee6f4e8721b12b2bd]
cluster Chantiers--><g id="cluster_Chantiers"><path d="M1319.5,194 L1398.5,194 A3.75,3.75 0 0 1 1401,196.5 L1408,216.2969 L1875.5,216.2969 A2.5,2.5 0 0 1 1878,218.7969 L1878,313.5 A2.5,2.5 0 0 1 1875.5,316 L1319.5,316 A2.5,2.5 0 0 1 1317,313.5 L1317,196.5 A2.5,2.5 0 0 1 1319.5,194 " style="stroke:#000000;stroke-width:1.5;fill:none;"/><line style="stroke:#000000;stroke-width:1.5;fill:none;" x1="1317" x2="1408" y1="216.2969" y2="216.2969"/><text fill="#000000" font-family="sans-serif" font-size="14" font-weight="bold" lengthAdjust="spacing" textLength="78" x="1321" y="208.9951">Chantiers</text></g><!--MD5=[d85b39782063a2b36140bbab9012d08a]
cluster Artisans--><g id="cluster_Artisans"><path d="M32.5,187.5 L102.5,187.5 A3.75,3.75 0 0 1 105,190 L112,209.7969 L1290.5,209.7969 A2.5,2.5 0 0 1 1293,212.2969 L1293,320 A2.5,2.5 0 0 1 1290.5,322.5 L32.5,322.5 A2.5,2.5 0 0 1 30,320 L30,190 A2.5,2.5 0 0 1 32.5,187.5 " style="stroke:#000000;stroke-width:1.5;fill:none;"/><line style="stroke:#000000;stroke-width:1.5;fill:none;" x1="30" x2="112" y1="209.7969" y2="209.7969"/><text fill="#000000" font-family="sans-serif" font-size="14" font-weight="bold" lengthAdjust="spacing" textLength="69" x="34" y="202.4951">Artisans</text></g><g id="elem_1"><ellipse cx="2461.1232" cy="274.2246" fill="#F1F1F1" rx="131.6232" ry="28.7246" style="stroke:#181818;stroke-width:0.5;"/><text fill="#000000" font-family="sans-serif" font-size="14" lengthAdjust="spacing" textLength="232" x="2345.1232" y="277.0713">Affecter un artisan a un chantier</text></g><g id="elem_2"><ellipse cx="2095.797" cy="274.0594" fill="#F1F1F1" rx="198.297" ry="42.0594" style="stroke:#181818;stroke-width:0.5;"/><text fill="#000000" font-family="sans-serif" font-size="14" lengthAdjust="spacing" textLength="370" x="1910.797" y="276.9061">Calculer la paye d’un artisan pour un chantier donné</text></g><g id="elem_3"><ellipse cx="1745.0271" cy="273.8054" fill="#F1F1F1" rx="117.0271" ry="25.8054" style="stroke:#181818;stroke-width:0.5;"/><text fill="#000000" font-family="sans-serif" font-size="14" lengthAdjust="spacing" textLength="201" x="1644.5271" y="276.6521">Ajouter un nouveau chantier</text></g><g id="elem_4"><ellipse cx="1432.1147" cy="274.1229" fill="#F1F1F1" rx="98.6147" ry="22.1229" style="stroke:#181818;stroke-width:0.5;"/><text fill="#000000" font-family="sans-serif" font-size="14" lengthAdjust="spacing" textLength="161" x="1351.6147" y="276.9696">Supprimer un chantier</text></g><g id="elem_5"><ellipse cx="437.8679" cy="274.1736" fill="#F1F1F1" rx="106.3679" ry="23.6736" style="stroke:#181818;stroke-width:0.5;"/><text fill="#000000" font-family="sans-serif" font-size="14" lengthAdjust="spacing" textLength="178" x="348.8679" y="277.0203">Ajouter un nouvel artisan</text></g><g id="elem_6"><ellipse cx="140.1693" cy="274.1339" fill="#F1F1F1" rx="93.6693" ry="21.1339" style="stroke:#181818;stroke-width:0.5;"/><text fill="#000000" font-family="sans-serif" font-size="14" lengthAdjust="spacing" textLength="150" x="65.1693" y="276.9805">Supprimer un artisan</text></g><g id="elem_7"><ellipse cx="793.2099" cy="274.142" fill="#F1F1F1" rx="151.2099" ry="32.642" style="stroke:#181818;stroke-width:0.5;"/><text fill="#000000" font-family="sans-serif" font-size="14" lengthAdjust="spacing" textLength="273" x="656.7099" y="276.9887">Changer un salaire horaire d'un artisan</text></g><g id="elem_8"><ellipse cx="1127.8078" cy="274.1616" fill="#F1F1F1" rx="148.8078" ry="32.1616" style="stroke:#181818;stroke-width:0.5;"/><text fill="#000000" font-family="sans-serif" font-size="14" lengthAdjust="spacing" textLength="268" x="993.8078" y="277.0082">Changer les coordonnées d'un artisan</text></g><!--MD5=[62d98c1fd14177dce660b686f7362982]
entity evilBoss--><g id="elem_evilBoss"><ellipse cx="1283" cy="14" fill="#F1F1F1" rx="8" ry="8" style="stroke:#181818;stroke-width:0.5;"/><path d="M1283,22 L1283,49 M1270,30 L1296,30 M1283,49 L1270,64 M1283,49 L1296,64 " fill="none" style="stroke:#181818;stroke-width:0.5;"/><text fill="#000000" font-family="sans-serif" font-size="14" lengthAdjust="spacing" textLength="162" x="1202" y="78.4951">L'entreprise / Manager</text></g><!--MD5=[138494c3918b04b032a37cb1764fdc4b]
link evilBoss to 1--><g id="link_evilBoss_1"><path d="M1364.17,45.062 C1576.31,47.583 2142.62,61.365 2312,136.5 C2364.33,159.711 2410.48,208.79 2437.08,241.33 " fill="none" id="evilBoss-to-1" style="stroke:#181818;stroke-width:1.0;"/><polygon fill="#181818" points="2440.54,245.609,2437.9881,236.0965,2437.3948,241.7221,2431.7691,241.1288,2440.54,245.609" style="stroke:#181818;stroke-width:1.0;"/></g><!--MD5=[5e4b5810dad221899226426691e35231]
link evilBoss to 2--><g id="link_evilBoss_2"><path d="M1364.23,47.665 C1542.67,55.23 1957.19,76.393 2010,111.5 C2049.87,138.007 2072.61,189.289 2084.56,226.981 " fill="none" id="evilBoss-to-2" style="stroke:#181818;stroke-width:1.0;"/><polygon fill="#181818" points="2086.11,231.973,2087.2668,222.1923,2084.63,227.1971,2079.6253,224.5603,2086.11,231.973" style="stroke:#181818;stroke-width:1.0;"/></g><!--MD5=[cd6823887e3525232d7d34c1d6db061b]
link evilBoss to 3--><g id="link_evilBoss_3"><path d="M1364.17,66.419 C1417.85,82.411 1488.95,106.501 1548,136.5 C1609.38,167.685 1673.72,215.584 1711.55,245.562 " fill="none" id="evilBoss-to-3" style="stroke:#181818;stroke-width:1.0;"/><polygon fill="#181818" points="1715.57,248.766,1711.0191,240.0316,1711.6579,245.6523,1706.0372,246.291,1715.57,248.766" style="stroke:#181818;stroke-width:1.0;"/></g><!--MD5=[6862e564693f239c63731527c0328d37]
link evilBoss to 4--><g id="link_evilBoss_4"><path d="M1348.44,81.506 C1359.8,90.191 1370.63,100.246 1379,111.5 C1409.67,152.75 1423.14,212.632 1428.62,246.695 " fill="none" id="evilBoss-to-4" style="stroke:#181818;stroke-width:1.0;"/><polygon fill="#181818" points="1429.43,251.934,1432.0051,242.4277,1428.6646,246.9929,1424.0994,243.6524,1429.43,251.934" style="stroke:#181818;stroke-width:1.0;"/></g><!--MD5=[b47c6fe1de6e2f72d3b062ad82bab686]
link evilBoss to 5--><g id="link_evilBoss_5"><path d="M1201.97,50.825 C1049.81,63.518 727.345,94.514 624,136.5 C559.992,162.505 497.798,215.435 464.032,247.201 " fill="none" id="evilBoss-to-5" style="stroke:#181818;stroke-width:1.0;"/><polygon fill="#181818" points="460.057,250.967,469.3411,247.6797,463.6862,247.5277,463.8382,241.8729,460.057,250.967" style="stroke:#181818;stroke-width:1.0;"/></g><!--MD5=[0c2778eb245749670f526b1d647b2d0e]
link evilBoss to 6--><g id="link_evilBoss_6"><path d="M1201.73,46.361 C998.82,51.936 474.761,72.303 314,136.5 C250.783,161.745 191.673,217.492 161.302,249.385 " fill="none" id="evilBoss-to-6" style="stroke:#181818;stroke-width:1.0;"/><polygon fill="#181818" points="157.742,253.152,166.8307,249.3579,161.1761,249.5179,161.0161,243.8633,157.742,253.152" style="stroke:#181818;stroke-width:1.0;"/></g><!--MD5=[c98cbd396823b167843e0ad7608bf55c]
link evilBoss to 7--><g id="link_evilBoss_7"><path d="M1201.8,47.916 C1093.61,54.017 909.795,70.274 858,111.5 C819.683,141.998 803.831,198.587 797.356,236.022 " fill="none" id="evilBoss-to-7" style="stroke:#181818;stroke-width:1.0;"/><polygon fill="#181818" points="796.467,241.401,801.8817,233.1742,797.2827,236.468,793.9889,231.869,796.467,241.401" style="stroke:#181818;stroke-width:1.0;"/></g><!--MD5=[0a6ff6df31f038a77ca6197396be0893]
link evilBoss to 8--><g id="link_evilBoss_8"><path d="M1201.93,78.454 C1187.94,87.424 1174.78,98.365 1165,111.5 C1137.66,148.229 1130.02,201.719 1128.14,236.928 " fill="none" id="evilBoss-to-8" style="stroke:#181818;stroke-width:1.0;"/><polygon fill="#181818" points="1127.91,241.986,1132.3244,233.1818,1128.1426,236.9914,1124.333,232.8097,1127.91,241.986" style="stroke:#181818;stroke-width:1.0;"/></g><!--MD5=[a33020d25e71e759d4561ece919ccd5b]
link 6 to 5--><g id="link_6_5"><path d="M233.88,274 C263.151,274 295.727,274 326.104,274 " fill="none" id="6-to-5" style="stroke:#181818;stroke-width:1.0;stroke-dasharray:7.0,7.0;"/><polygon fill="#181818" points="331.353,274,322.353,270,326.353,274,322.353,278,331.353,274" style="stroke:#181818;stroke-width:1.0;"/><text fill="#000000" font-family="sans-serif" font-size="13" lengthAdjust="spacing" textLength="61" x="252" y="267.0669">«include»</text></g><!--MD5=[1a0d6c1057c80b47479001d8cc94b868]
link 7 to 5--><g id="link_7_5"><path d="M641.941,274 C610.952,274 578.863,274 549.567,274 " fill="none" id="7-to-5" style="stroke:#181818;stroke-width:1.0;stroke-dasharray:7.0,7.0;"/><polygon fill="#181818" points="544.512,274,553.512,278,549.512,274,553.512,270,544.512,274" style="stroke:#181818;stroke-width:1.0;"/><text fill="#000000" font-family="sans-serif" font-size="13" lengthAdjust="spacing" textLength="61" x="562.75" y="267.0669">«include»</text></g><!--MD5=[8d379dbff6830644d7009b2349731742]
link 8 to 5--><g id="link_8_5"><path d="M1099.35,242.419 C1068.66,211.173 1016.81,165.368 961,146.5 C819.113,98.528 767.068,102.172 624,146.5 C560.394,166.207 499.203,216.009 465.294,247.217 " fill="none" id="8-to-5" style="stroke:#181818;stroke-width:1.0;stroke-dasharray:7.0,7.0;"/><polygon fill="#181818" points="461.296,250.927,470.6141,247.7375,464.9612,247.5261,465.1726,241.8732,461.296,250.927" style="stroke:#181818;stroke-width:1.0;"/><text fill="#000000" font-family="sans-serif" font-size="13" lengthAdjust="spacing" textLength="61" x="867.5" y="124.5669">«include»</text></g><!--MD5=[e71408b9390228c84d74723432d512d8]
link 4 to 3--><g id="link_4_3"><path d="M1530.61,274 C1559.83,274 1592.18,274 1622.71,274 " fill="none" id="4-to-3" style="stroke:#181818;stroke-width:1.0;stroke-dasharray:7.0,7.0;"/><polygon fill="#181818" points="1627.99,274,1618.99,270,1622.99,274,1618.99,278,1627.99,274" style="stroke:#181818;stroke-width:1.0;"/><text fill="#000000" font-family="sans-serif" font-size="13" lengthAdjust="spacing" textLength="61" x="1548.75" y="267.0669">«include»</text></g><!--MD5=[9d80a3d980cf31fd9e818eccbae0c1d0]
link 7 to 2--><g id="link_7_2"><path d="M822.442,241.833 C853.408,210.6 905.301,165.242 961,146.5 C1057.57,114.005 1779.66,119.853 1878,146.5 C1937.94,162.741 1998.28,200.039 2040.24,230.122 " fill="none" id="7-to-2" style="stroke:#181818;stroke-width:1.0;stroke-dasharray:7.0,7.0;"/><polygon fill="#181818" points="2044.49,233.195,2039.5365,224.6825,2040.4368,230.2672,2034.8521,231.1676,2044.49,233.195" style="stroke:#181818;stroke-width:1.0;"/><text fill="#000000" font-family="sans-serif" font-size="13" lengthAdjust="spacing" textLength="61" x="1174.5" y="124.5669">«include»</text></g><!--MD5=[45e14ffedb66253ed47de39e4f78fbf8]
link 1 to 5--><g id="link_1_5"><path d="M2438.83,245.629 C2412.49,214.458 2365.33,166.204 2312,146.5 C2224.03,114.001 713.577,118.746 624,146.5 C560.394,166.207 499.203,216.009 465.294,247.217 " fill="none" id="1-to-5" style="stroke:#181818;stroke-width:1.0;stroke-dasharray:7.0,7.0;"/><polygon fill="#181818" points="461.296,250.927,470.6141,247.7375,464.9612,247.5261,465.1726,241.8732,461.296,250.927" style="stroke:#181818;stroke-width:1.0;"/><text fill="#000000" font-family="sans-serif" font-size="13" lengthAdjust="spacing" textLength="68" x="1302" y="124.5669">«extends»</text></g><!--MD5=[2d4b753efd65b00afdf467246674cbe5]
link 1 to 3--><g id="link_1_3"><path d="M2438.83,245.629 C2412.49,214.458 2365.33,166.204 2312,146.5 C2219.03,112.152 1957.06,107.378 1866,146.5 C1820.3,166.133 1783.75,212.447 1763.22,243.511 " fill="none" id="1-to-3" style="stroke:#181818;stroke-width:1.0;stroke-dasharray:7.0,7.0;"/><polygon fill="#181818" points="1760.3,247.978,1768.567,242.6248,1763.0315,243.79,1761.8663,238.2545,1760.3,247.978" style="stroke:#181818;stroke-width:1.0;"/><text fill="#000000" font-family="sans-serif" font-size="13" lengthAdjust="spacing" textLength="68" x="1933" y="124.5669">«extends»</text></g><!--MD5=[84e511c23b89d5e06c7d308e7643d1c1]
@startuml
actor "L'entreprise / Manager" as evilBoss

package "Interface application" {
    usecase 1 as "Affecter un artisan a un chantier"
    usecase 2 as "Calculer la paye d’un artisan pour un chantier donné"

    package "Chantiers" {
        usecase 3 as "Ajouter un nouveau chantier"
        usecase 4 as "Supprimer un chantier"
    }

    package "Artisans" {
        usecase 5 as "Ajouter un nouvel artisan"
        usecase 6 as "Supprimer un artisan"
        usecase 7 as "Changer un salaire horaire d'un artisan"
        usecase 8 as "Changer les coordonnées d'un artisan"
    }
}

evilBoss - -> 1
evilBoss - -> 2
evilBoss - -> 3
evilBoss - -> 4
evilBoss - -> 5
evilBoss - -> 6
evilBoss - -> 7
evilBoss - -> 8

(6) .> (5) : <<include>>
(7) .> (5) : <<include>>
(8) .> (5) : <<include>>

(4) .> (3) : <<include>>

(7) .> (2) : <<include>>

(1) .> (5) : <<extends>>
(1) .> (3) : <<extends>>
@enduml

PlantUML version 1.2022.3beta2(Unknown compile time)
(GPL source distribution)
Java Runtime: Java(TM) SE Runtime Environment
JVM: Java HotSpot(TM) 64-Bit Server VM
Default Encoding: UTF-8
Language: en
Country: US
--></g></svg>